<svg xmlns="http://www.w3.org/2000/svg" width="477" height="50" viewBox="0 0 477 50">
  <g id="Group_68517" data-name="Group 68517" transform="translate(22 -696)" opacity="0.5">
    <g id="Group_68514" data-name="Group 68514" transform="translate(-5559 708)">
      <g id="Group_68510" data-name="Group 68510">
        <circle id="Ellipse_9" data-name="Ellipse 9" cx="4" cy="4" r="4" transform="translate(6006 -12)" fill="#e3ba4f"/>
        <circle id="Ellipse_10" data-name="Ellipse 10" cx="4" cy="4" r="4" transform="translate(5993 -12)" fill="#e3ba4f"/>
        <circle id="Ellipse_11" data-name="Ellipse 11" cx="4" cy="4" r="4" transform="translate(5979 -12)" fill="#e3ba4f"/>
        <circle id="Ellipse_12" data-name="Ellipse 12" cx="4" cy="4" r="4" transform="translate(5966 -12)" fill="#e3ba4f"/>
        <circle id="Ellipse_13" data-name="Ellipse 13" cx="4" cy="4" r="4" transform="translate(5953 -12)" fill="#e3ba4f"/>
        <circle id="Ellipse_14" data-name="Ellipse 14" cx="4" cy="4" r="4" transform="translate(5872 -12)" fill="#e3ba4f"/>
        <circle id="Ellipse_15" data-name="Ellipse 15" cx="4" cy="4" r="4" transform="translate(5886 -12)" fill="#e3ba4f"/>
        <circle id="Ellipse_16" data-name="Ellipse 16" cx="4" cy="4" r="4" transform="translate(5899 -12)" fill="#e3ba4f"/>
        <circle id="Ellipse_17" data-name="Ellipse 17" cx="4" cy="4" r="4" transform="translate(5912 -12)" fill="#e3ba4f"/>
        <circle id="Ellipse_18" data-name="Ellipse 18" cx="4" cy="4" r="4" transform="translate(5926 -12)" fill="#e3ba4f"/>
        <circle id="Ellipse_19" data-name="Ellipse 19" cx="4" cy="4" r="4" transform="translate(5939 -12)" fill="#e3ba4f"/>
        <circle id="Ellipse_20" data-name="Ellipse 20" cx="4" cy="4" r="4" transform="translate(5859 -12)" fill="#e3ba4f"/>
        <circle id="Ellipse_21" data-name="Ellipse 21" cx="4" cy="4" r="4" transform="translate(5979 -12)" fill="#e3ba4f"/>
      </g>
      <g id="Group_68511" data-name="Group 68511" transform="translate(0 14)">
        <circle id="Ellipse_9-2" data-name="Ellipse 9" cx="4" cy="4" r="4" transform="translate(6006 -12)" fill="#e3ba4f"/>
        <circle id="Ellipse_10-2" data-name="Ellipse 10" cx="4" cy="4" r="4" transform="translate(5993 -12)" fill="#e3ba4f"/>
        <circle id="Ellipse_11-2" data-name="Ellipse 11" cx="4" cy="4" r="4" transform="translate(5979 -12)" fill="#e3ba4f"/>
        <circle id="Ellipse_12-2" data-name="Ellipse 12" cx="4" cy="4" r="4" transform="translate(5966 -12)" fill="#e3ba4f"/>
        <circle id="Ellipse_13-2" data-name="Ellipse 13" cx="4" cy="4" r="4" transform="translate(5953 -12)" fill="#e3ba4f"/>
        <circle id="Ellipse_14-2" data-name="Ellipse 14" cx="4" cy="4" r="4" transform="translate(5872 -12)" fill="#e3ba4f"/>
        <circle id="Ellipse_15-2" data-name="Ellipse 15" cx="4" cy="4" r="4" transform="translate(5886 -12)" fill="#e3ba4f"/>
        <circle id="Ellipse_16-2" data-name="Ellipse 16" cx="4" cy="4" r="4" transform="translate(5899 -12)" fill="#e3ba4f"/>
        <circle id="Ellipse_17-2" data-name="Ellipse 17" cx="4" cy="4" r="4" transform="translate(5912 -12)" fill="#e3ba4f"/>
        <circle id="Ellipse_18-2" data-name="Ellipse 18" cx="4" cy="4" r="4" transform="translate(5926 -12)" fill="#e3ba4f"/>
        <circle id="Ellipse_19-2" data-name="Ellipse 19" cx="4" cy="4" r="4" transform="translate(5939 -12)" fill="#e3ba4f"/>
        <circle id="Ellipse_20-2" data-name="Ellipse 20" cx="4" cy="4" r="4" transform="translate(5859 -12)" fill="#e3ba4f"/>
        <circle id="Ellipse_21-2" data-name="Ellipse 21" cx="4" cy="4" r="4" transform="translate(5979 -12)" fill="#e3ba4f"/>
      </g>
      <g id="Group_68512" data-name="Group 68512" transform="translate(0 28)">
        <circle id="Ellipse_9-3" data-name="Ellipse 9" cx="4" cy="4" r="4" transform="translate(6006 -12)" fill="#e3ba4f"/>
        <circle id="Ellipse_10-3" data-name="Ellipse 10" cx="4" cy="4" r="4" transform="translate(5993 -12)" fill="#e3ba4f"/>
        <circle id="Ellipse_11-3" data-name="Ellipse 11" cx="4" cy="4" r="4" transform="translate(5979 -12)" fill="#e3ba4f"/>
        <circle id="Ellipse_12-3" data-name="Ellipse 12" cx="4" cy="4" r="4" transform="translate(5966 -12)" fill="#e3ba4f"/>
        <circle id="Ellipse_13-3" data-name="Ellipse 13" cx="4" cy="4" r="4" transform="translate(5953 -12)" fill="#e3ba4f"/>
        <circle id="Ellipse_14-3" data-name="Ellipse 14" cx="4" cy="4" r="4" transform="translate(5872 -12)" fill="#e3ba4f"/>
        <circle id="Ellipse_15-3" data-name="Ellipse 15" cx="4" cy="4" r="4" transform="translate(5886 -12)" fill="#e3ba4f"/>
        <circle id="Ellipse_16-3" data-name="Ellipse 16" cx="4" cy="4" r="4" transform="translate(5899 -12)" fill="#e3ba4f"/>
        <circle id="Ellipse_17-3" data-name="Ellipse 17" cx="4" cy="4" r="4" transform="translate(5912 -12)" fill="#e3ba4f"/>
        <circle id="Ellipse_18-3" data-name="Ellipse 18" cx="4" cy="4" r="4" transform="translate(5926 -12)" fill="#e3ba4f"/>
        <circle id="Ellipse_19-3" data-name="Ellipse 19" cx="4" cy="4" r="4" transform="translate(5939 -12)" fill="#e3ba4f"/>
        <circle id="Ellipse_20-3" data-name="Ellipse 20" cx="4" cy="4" r="4" transform="translate(5859 -12)" fill="#e3ba4f"/>
        <circle id="Ellipse_21-3" data-name="Ellipse 21" cx="4" cy="4" r="4" transform="translate(5979 -12)" fill="#e3ba4f"/>
      </g>
      <g id="Group_68513" data-name="Group 68513" transform="translate(0 42)">
        <circle id="Ellipse_9-4" data-name="Ellipse 9" cx="4" cy="4" r="4" transform="translate(6006 -12)" fill="#e3ba4f"/>
        <circle id="Ellipse_10-4" data-name="Ellipse 10" cx="4" cy="4" r="4" transform="translate(5993 -12)" fill="#e3ba4f"/>
        <circle id="Ellipse_11-4" data-name="Ellipse 11" cx="4" cy="4" r="4" transform="translate(5979 -12)" fill="#e3ba4f"/>
        <circle id="Ellipse_12-4" data-name="Ellipse 12" cx="4" cy="4" r="4" transform="translate(5966 -12)" fill="#e3ba4f"/>
        <circle id="Ellipse_13-4" data-name="Ellipse 13" cx="4" cy="4" r="4" transform="translate(5953 -12)" fill="#e3ba4f"/>
        <circle id="Ellipse_14-4" data-name="Ellipse 14" cx="4" cy="4" r="4" transform="translate(5872 -12)" fill="#e3ba4f"/>
        <circle id="Ellipse_15-4" data-name="Ellipse 15" cx="4" cy="4" r="4" transform="translate(5886 -12)" fill="#e3ba4f"/>
        <circle id="Ellipse_16-4" data-name="Ellipse 16" cx="4" cy="4" r="4" transform="translate(5899 -12)" fill="#e3ba4f"/>
        <circle id="Ellipse_17-4" data-name="Ellipse 17" cx="4" cy="4" r="4" transform="translate(5912 -12)" fill="#e3ba4f"/>
        <circle id="Ellipse_18-4" data-name="Ellipse 18" cx="4" cy="4" r="4" transform="translate(5926 -12)" fill="#e3ba4f"/>
        <circle id="Ellipse_19-4" data-name="Ellipse 19" cx="4" cy="4" r="4" transform="translate(5939 -12)" fill="#e3ba4f"/>
        <circle id="Ellipse_20-4" data-name="Ellipse 20" cx="4" cy="4" r="4" transform="translate(5859 -12)" fill="#e3ba4f"/>
        <circle id="Ellipse_21-4" data-name="Ellipse 21" cx="4" cy="4" r="4" transform="translate(5979 -12)" fill="#e3ba4f"/>
      </g>
    </g>
    <g id="Group_68515" data-name="Group 68515" transform="translate(-5720 708)">
      <g id="Group_68510-2" data-name="Group 68510">
        <circle id="Ellipse_9-5" data-name="Ellipse 9" cx="4" cy="4" r="4" transform="translate(6006 -12)" fill="#e3ba4f"/>
        <circle id="Ellipse_10-5" data-name="Ellipse 10" cx="4" cy="4" r="4" transform="translate(5993 -12)" fill="#e3ba4f"/>
        <circle id="Ellipse_11-5" data-name="Ellipse 11" cx="4" cy="4" r="4" transform="translate(5979 -12)" fill="#e3ba4f"/>
        <circle id="Ellipse_12-5" data-name="Ellipse 12" cx="4" cy="4" r="4" transform="translate(5966 -12)" fill="#e3ba4f"/>
        <circle id="Ellipse_13-5" data-name="Ellipse 13" cx="4" cy="4" r="4" transform="translate(5953 -12)" fill="#e3ba4f"/>
        <circle id="Ellipse_14-5" data-name="Ellipse 14" cx="4" cy="4" r="4" transform="translate(5872 -12)" fill="#e3ba4f"/>
        <circle id="Ellipse_15-5" data-name="Ellipse 15" cx="4" cy="4" r="4" transform="translate(5886 -12)" fill="#e3ba4f"/>
        <circle id="Ellipse_16-5" data-name="Ellipse 16" cx="4" cy="4" r="4" transform="translate(5899 -12)" fill="#e3ba4f"/>
        <circle id="Ellipse_17-5" data-name="Ellipse 17" cx="4" cy="4" r="4" transform="translate(5912 -12)" fill="#e3ba4f"/>
        <circle id="Ellipse_18-5" data-name="Ellipse 18" cx="4" cy="4" r="4" transform="translate(5926 -12)" fill="#e3ba4f"/>
        <circle id="Ellipse_19-5" data-name="Ellipse 19" cx="4" cy="4" r="4" transform="translate(5939 -12)" fill="#e3ba4f"/>
        <circle id="Ellipse_20-5" data-name="Ellipse 20" cx="4" cy="4" r="4" transform="translate(5859 -12)" fill="#e3ba4f"/>
        <circle id="Ellipse_21-5" data-name="Ellipse 21" cx="4" cy="4" r="4" transform="translate(5979 -12)" fill="#e3ba4f"/>
      </g>
      <g id="Group_68511-2" data-name="Group 68511" transform="translate(0 14)">
        <circle id="Ellipse_9-6" data-name="Ellipse 9" cx="4" cy="4" r="4" transform="translate(6006 -12)" fill="#e3ba4f"/>
        <circle id="Ellipse_10-6" data-name="Ellipse 10" cx="4" cy="4" r="4" transform="translate(5993 -12)" fill="#e3ba4f"/>
        <circle id="Ellipse_11-6" data-name="Ellipse 11" cx="4" cy="4" r="4" transform="translate(5979 -12)" fill="#e3ba4f"/>
        <circle id="Ellipse_12-6" data-name="Ellipse 12" cx="4" cy="4" r="4" transform="translate(5966 -12)" fill="#e3ba4f"/>
        <circle id="Ellipse_13-6" data-name="Ellipse 13" cx="4" cy="4" r="4" transform="translate(5953 -12)" fill="#e3ba4f"/>
        <circle id="Ellipse_14-6" data-name="Ellipse 14" cx="4" cy="4" r="4" transform="translate(5872 -12)" fill="#e3ba4f"/>
        <circle id="Ellipse_15-6" data-name="Ellipse 15" cx="4" cy="4" r="4" transform="translate(5886 -12)" fill="#e3ba4f"/>
        <circle id="Ellipse_16-6" data-name="Ellipse 16" cx="4" cy="4" r="4" transform="translate(5899 -12)" fill="#e3ba4f"/>
        <circle id="Ellipse_17-6" data-name="Ellipse 17" cx="4" cy="4" r="4" transform="translate(5912 -12)" fill="#e3ba4f"/>
        <circle id="Ellipse_18-6" data-name="Ellipse 18" cx="4" cy="4" r="4" transform="translate(5926 -12)" fill="#e3ba4f"/>
        <circle id="Ellipse_19-6" data-name="Ellipse 19" cx="4" cy="4" r="4" transform="translate(5939 -12)" fill="#e3ba4f"/>
        <circle id="Ellipse_20-6" data-name="Ellipse 20" cx="4" cy="4" r="4" transform="translate(5859 -12)" fill="#e3ba4f"/>
        <circle id="Ellipse_21-6" data-name="Ellipse 21" cx="4" cy="4" r="4" transform="translate(5979 -12)" fill="#e3ba4f"/>
      </g>
      <g id="Group_68512-2" data-name="Group 68512" transform="translate(0 28)">
        <circle id="Ellipse_9-7" data-name="Ellipse 9" cx="4" cy="4" r="4" transform="translate(6006 -12)" fill="#e3ba4f"/>
        <circle id="Ellipse_10-7" data-name="Ellipse 10" cx="4" cy="4" r="4" transform="translate(5993 -12)" fill="#e3ba4f"/>
        <circle id="Ellipse_11-7" data-name="Ellipse 11" cx="4" cy="4" r="4" transform="translate(5979 -12)" fill="#e3ba4f"/>
        <circle id="Ellipse_12-7" data-name="Ellipse 12" cx="4" cy="4" r="4" transform="translate(5966 -12)" fill="#e3ba4f"/>
        <circle id="Ellipse_13-7" data-name="Ellipse 13" cx="4" cy="4" r="4" transform="translate(5953 -12)" fill="#e3ba4f"/>
        <circle id="Ellipse_14-7" data-name="Ellipse 14" cx="4" cy="4" r="4" transform="translate(5872 -12)" fill="#e3ba4f"/>
        <circle id="Ellipse_15-7" data-name="Ellipse 15" cx="4" cy="4" r="4" transform="translate(5886 -12)" fill="#e3ba4f"/>
        <circle id="Ellipse_16-7" data-name="Ellipse 16" cx="4" cy="4" r="4" transform="translate(5899 -12)" fill="#e3ba4f"/>
        <circle id="Ellipse_17-7" data-name="Ellipse 17" cx="4" cy="4" r="4" transform="translate(5912 -12)" fill="#e3ba4f"/>
        <circle id="Ellipse_18-7" data-name="Ellipse 18" cx="4" cy="4" r="4" transform="translate(5926 -12)" fill="#e3ba4f"/>
        <circle id="Ellipse_19-7" data-name="Ellipse 19" cx="4" cy="4" r="4" transform="translate(5939 -12)" fill="#e3ba4f"/>
        <circle id="Ellipse_20-7" data-name="Ellipse 20" cx="4" cy="4" r="4" transform="translate(5859 -12)" fill="#e3ba4f"/>
        <circle id="Ellipse_21-7" data-name="Ellipse 21" cx="4" cy="4" r="4" transform="translate(5979 -12)" fill="#e3ba4f"/>
      </g>
      <g id="Group_68513-2" data-name="Group 68513" transform="translate(0 42)">
        <circle id="Ellipse_9-8" data-name="Ellipse 9" cx="4" cy="4" r="4" transform="translate(6006 -12)" fill="#e3ba4f"/>
        <circle id="Ellipse_10-8" data-name="Ellipse 10" cx="4" cy="4" r="4" transform="translate(5993 -12)" fill="#e3ba4f"/>
        <circle id="Ellipse_11-8" data-name="Ellipse 11" cx="4" cy="4" r="4" transform="translate(5979 -12)" fill="#e3ba4f"/>
        <circle id="Ellipse_12-8" data-name="Ellipse 12" cx="4" cy="4" r="4" transform="translate(5966 -12)" fill="#e3ba4f"/>
        <circle id="Ellipse_13-8" data-name="Ellipse 13" cx="4" cy="4" r="4" transform="translate(5953 -12)" fill="#e3ba4f"/>
        <circle id="Ellipse_14-8" data-name="Ellipse 14" cx="4" cy="4" r="4" transform="translate(5872 -12)" fill="#e3ba4f"/>
        <circle id="Ellipse_15-8" data-name="Ellipse 15" cx="4" cy="4" r="4" transform="translate(5886 -12)" fill="#e3ba4f"/>
        <circle id="Ellipse_16-8" data-name="Ellipse 16" cx="4" cy="4" r="4" transform="translate(5899 -12)" fill="#e3ba4f"/>
        <circle id="Ellipse_17-8" data-name="Ellipse 17" cx="4" cy="4" r="4" transform="translate(5912 -12)" fill="#e3ba4f"/>
        <circle id="Ellipse_18-8" data-name="Ellipse 18" cx="4" cy="4" r="4" transform="translate(5926 -12)" fill="#e3ba4f"/>
        <circle id="Ellipse_19-8" data-name="Ellipse 19" cx="4" cy="4" r="4" transform="translate(5939 -12)" fill="#e3ba4f"/>
        <circle id="Ellipse_20-8" data-name="Ellipse 20" cx="4" cy="4" r="4" transform="translate(5859 -12)" fill="#e3ba4f"/>
        <circle id="Ellipse_21-8" data-name="Ellipse 21" cx="4" cy="4" r="4" transform="translate(5979 -12)" fill="#e3ba4f"/>
      </g>
    </g>
    <g id="Group_68516" data-name="Group 68516" transform="translate(-5881 708)">
      <g id="Group_68510-3" data-name="Group 68510">
        <circle id="Ellipse_9-9" data-name="Ellipse 9" cx="4" cy="4" r="4" transform="translate(6006 -12)" fill="#e3ba4f"/>
        <circle id="Ellipse_10-9" data-name="Ellipse 10" cx="4" cy="4" r="4" transform="translate(5993 -12)" fill="#e3ba4f"/>
        <circle id="Ellipse_11-9" data-name="Ellipse 11" cx="4" cy="4" r="4" transform="translate(5979 -12)" fill="#e3ba4f"/>
        <circle id="Ellipse_12-9" data-name="Ellipse 12" cx="4" cy="4" r="4" transform="translate(5966 -12)" fill="#e3ba4f"/>
        <circle id="Ellipse_13-9" data-name="Ellipse 13" cx="4" cy="4" r="4" transform="translate(5953 -12)" fill="#e3ba4f"/>
        <circle id="Ellipse_14-9" data-name="Ellipse 14" cx="4" cy="4" r="4" transform="translate(5872 -12)" fill="#e3ba4f"/>
        <circle id="Ellipse_15-9" data-name="Ellipse 15" cx="4" cy="4" r="4" transform="translate(5886 -12)" fill="#e3ba4f"/>
        <circle id="Ellipse_16-9" data-name="Ellipse 16" cx="4" cy="4" r="4" transform="translate(5899 -12)" fill="#e3ba4f"/>
        <circle id="Ellipse_17-9" data-name="Ellipse 17" cx="4" cy="4" r="4" transform="translate(5912 -12)" fill="#e3ba4f"/>
        <circle id="Ellipse_18-9" data-name="Ellipse 18" cx="4" cy="4" r="4" transform="translate(5926 -12)" fill="#e3ba4f"/>
        <circle id="Ellipse_19-9" data-name="Ellipse 19" cx="4" cy="4" r="4" transform="translate(5939 -12)" fill="#e3ba4f"/>
        <circle id="Ellipse_20-9" data-name="Ellipse 20" cx="4" cy="4" r="4" transform="translate(5859 -12)" fill="#e3ba4f"/>
        <circle id="Ellipse_21-9" data-name="Ellipse 21" cx="4" cy="4" r="4" transform="translate(5979 -12)" fill="#e3ba4f"/>
      </g>
      <g id="Group_68511-3" data-name="Group 68511" transform="translate(0 14)">
        <circle id="Ellipse_9-10" data-name="Ellipse 9" cx="4" cy="4" r="4" transform="translate(6006 -12)" fill="#e3ba4f"/>
        <circle id="Ellipse_10-10" data-name="Ellipse 10" cx="4" cy="4" r="4" transform="translate(5993 -12)" fill="#e3ba4f"/>
        <circle id="Ellipse_11-10" data-name="Ellipse 11" cx="4" cy="4" r="4" transform="translate(5979 -12)" fill="#e3ba4f"/>
        <circle id="Ellipse_12-10" data-name="Ellipse 12" cx="4" cy="4" r="4" transform="translate(5966 -12)" fill="#e3ba4f"/>
        <circle id="Ellipse_13-10" data-name="Ellipse 13" cx="4" cy="4" r="4" transform="translate(5953 -12)" fill="#e3ba4f"/>
        <circle id="Ellipse_14-10" data-name="Ellipse 14" cx="4" cy="4" r="4" transform="translate(5872 -12)" fill="#e3ba4f"/>
        <circle id="Ellipse_15-10" data-name="Ellipse 15" cx="4" cy="4" r="4" transform="translate(5886 -12)" fill="#e3ba4f"/>
        <circle id="Ellipse_16-10" data-name="Ellipse 16" cx="4" cy="4" r="4" transform="translate(5899 -12)" fill="#e3ba4f"/>
        <circle id="Ellipse_17-10" data-name="Ellipse 17" cx="4" cy="4" r="4" transform="translate(5912 -12)" fill="#e3ba4f"/>
        <circle id="Ellipse_18-10" data-name="Ellipse 18" cx="4" cy="4" r="4" transform="translate(5926 -12)" fill="#e3ba4f"/>
        <circle id="Ellipse_19-10" data-name="Ellipse 19" cx="4" cy="4" r="4" transform="translate(5939 -12)" fill="#e3ba4f"/>
        <circle id="Ellipse_20-10" data-name="Ellipse 20" cx="4" cy="4" r="4" transform="translate(5859 -12)" fill="#e3ba4f"/>
        <circle id="Ellipse_21-10" data-name="Ellipse 21" cx="4" cy="4" r="4" transform="translate(5979 -12)" fill="#e3ba4f"/>
      </g>
      <g id="Group_68512-3" data-name="Group 68512" transform="translate(0 28)">
        <circle id="Ellipse_9-11" data-name="Ellipse 9" cx="4" cy="4" r="4" transform="translate(6006 -12)" fill="#e3ba4f"/>
        <circle id="Ellipse_10-11" data-name="Ellipse 10" cx="4" cy="4" r="4" transform="translate(5993 -12)" fill="#e3ba4f"/>
        <circle id="Ellipse_11-11" data-name="Ellipse 11" cx="4" cy="4" r="4" transform="translate(5979 -12)" fill="#e3ba4f"/>
        <circle id="Ellipse_12-11" data-name="Ellipse 12" cx="4" cy="4" r="4" transform="translate(5966 -12)" fill="#e3ba4f"/>
        <circle id="Ellipse_13-11" data-name="Ellipse 13" cx="4" cy="4" r="4" transform="translate(5953 -12)" fill="#e3ba4f"/>
        <circle id="Ellipse_14-11" data-name="Ellipse 14" cx="4" cy="4" r="4" transform="translate(5872 -12)" fill="#e3ba4f"/>
        <circle id="Ellipse_15-11" data-name="Ellipse 15" cx="4" cy="4" r="4" transform="translate(5886 -12)" fill="#e3ba4f"/>
        <circle id="Ellipse_16-11" data-name="Ellipse 16" cx="4" cy="4" r="4" transform="translate(5899 -12)" fill="#e3ba4f"/>
        <circle id="Ellipse_17-11" data-name="Ellipse 17" cx="4" cy="4" r="4" transform="translate(5912 -12)" fill="#e3ba4f"/>
        <circle id="Ellipse_18-11" data-name="Ellipse 18" cx="4" cy="4" r="4" transform="translate(5926 -12)" fill="#e3ba4f"/>
        <circle id="Ellipse_19-11" data-name="Ellipse 19" cx="4" cy="4" r="4" transform="translate(5939 -12)" fill="#e3ba4f"/>
        <circle id="Ellipse_20-11" data-name="Ellipse 20" cx="4" cy="4" r="4" transform="translate(5859 -12)" fill="#e3ba4f"/>
        <circle id="Ellipse_21-11" data-name="Ellipse 21" cx="4" cy="4" r="4" transform="translate(5979 -12)" fill="#e3ba4f"/>
      </g>
      <g id="Group_68513-3" data-name="Group 68513" transform="translate(0 42)">
        <circle id="Ellipse_9-12" data-name="Ellipse 9" cx="4" cy="4" r="4" transform="translate(6006 -12)" fill="#e3ba4f"/>
        <circle id="Ellipse_10-12" data-name="Ellipse 10" cx="4" cy="4" r="4" transform="translate(5993 -12)" fill="#e3ba4f"/>
        <circle id="Ellipse_11-12" data-name="Ellipse 11" cx="4" cy="4" r="4" transform="translate(5979 -12)" fill="#e3ba4f"/>
        <circle id="Ellipse_12-12" data-name="Ellipse 12" cx="4" cy="4" r="4" transform="translate(5966 -12)" fill="#e3ba4f"/>
        <circle id="Ellipse_13-12" data-name="Ellipse 13" cx="4" cy="4" r="4" transform="translate(5953 -12)" fill="#e3ba4f"/>
        <circle id="Ellipse_14-12" data-name="Ellipse 14" cx="4" cy="4" r="4" transform="translate(5872 -12)" fill="#e3ba4f"/>
        <circle id="Ellipse_15-12" data-name="Ellipse 15" cx="4" cy="4" r="4" transform="translate(5886 -12)" fill="#e3ba4f"/>
        <circle id="Ellipse_16-12" data-name="Ellipse 16" cx="4" cy="4" r="4" transform="translate(5899 -12)" fill="#e3ba4f"/>
        <circle id="Ellipse_17-12" data-name="Ellipse 17" cx="4" cy="4" r="4" transform="translate(5912 -12)" fill="#e3ba4f"/>
        <circle id="Ellipse_18-12" data-name="Ellipse 18" cx="4" cy="4" r="4" transform="translate(5926 -12)" fill="#e3ba4f"/>
        <circle id="Ellipse_19-12" data-name="Ellipse 19" cx="4" cy="4" r="4" transform="translate(5939 -12)" fill="#e3ba4f"/>
        <circle id="Ellipse_20-12" data-name="Ellipse 20" cx="4" cy="4" r="4" transform="translate(5859 -12)" fill="#e3ba4f"/>
        <circle id="Ellipse_21-12" data-name="Ellipse 21" cx="4" cy="4" r="4" transform="translate(5979 -12)" fill="#e3ba4f"/>
      </g>
    </g>
  </g>
</svg>
